<svg width="48" height="48" viewBox="0 0 48 48" fill="none" xmlns="http://www.w3.org/2000/svg">
<path d="M10.8384 21.2423L15.2384 23.1038C15.782 22.0166 16.3615 20.966 16.9769 19.9519C17.5923 18.9378 18.2705 17.9397 19.0116 16.9576L16.0769 16.3884C15.9743 16.3628 15.875 16.366 15.7788 16.398C15.6827 16.4301 15.5961 16.4846 15.5192 16.5615L10.8384 21.2423ZM17.6307 24.9884L23.3115 30.6384C24.8012 30.0153 26.3461 29.1538 27.9461 28.0538C29.5461 26.9538 31.0653 25.6846 32.5038 24.2461C34.7474 22.0025 36.4826 19.5583 37.7095 16.9134C38.9364 14.2686 39.5435 11.5474 39.5307 8.74994C36.7332 8.73714 34.0101 9.34419 31.3614 10.5711C28.7127 11.798 26.2666 13.5333 24.023 15.7768C22.5845 17.2153 21.3153 18.7378 20.2153 20.3442C19.1153 21.9506 18.2538 23.4987 17.6307 24.9884ZM27.2615 20.9883C26.5846 20.3114 26.2461 19.4884 26.2461 18.5191C26.2461 17.5499 26.5846 16.7269 27.2615 16.0499C27.9384 15.373 28.7698 15.0346 29.7557 15.0346C30.7416 15.0346 31.573 15.373 32.2499 16.0499C32.9268 16.7269 33.2653 17.5499 33.2653 18.5191C33.2653 19.4884 32.9268 20.3114 32.2499 20.9883C31.573 21.6653 30.7416 22.0037 29.7557 22.0037C28.7698 22.0037 27.9384 21.6653 27.2615 20.9883ZM27.0383 37.4614L31.7192 32.7806C31.7961 32.7037 31.8505 32.6172 31.8826 32.521C31.9147 32.4249 31.9179 32.3255 31.8922 32.2229L31.323 29.2883C30.3409 30.0293 29.3429 30.7024 28.3288 31.3075C27.3146 31.9127 26.264 32.487 25.1768 33.0306L27.0383 37.4614ZM42.2652 6.00384C42.6934 9.85768 42.2376 13.5102 40.8979 16.9615C39.5582 20.4128 37.3537 23.673 34.2845 26.7422L34.1114 26.9152L33.9383 27.0883L34.8422 31.6152C34.9627 32.2178 34.9357 32.8037 34.7614 33.3729C34.587 33.9421 34.2858 34.4409 33.8575 34.8691L26.0153 42.6921L22.2576 33.8614L14.4192 26.023L5.5885 22.2461L13.3808 14.4231C13.809 13.9949 14.3128 13.6904 14.8923 13.5096C15.4718 13.3288 16.0628 13.2987 16.6654 13.4192L21.2307 14.3423C21.2948 14.2782 21.3493 14.2205 21.3942 14.1692C21.4391 14.1179 21.4936 14.0602 21.5577 13.9961C24.6269 10.9269 27.882 8.72054 31.323 7.37694C34.764 6.03338 38.4114 5.57568 42.2652 6.00384ZM9.04235 32.1422C10.0167 31.1679 11.2045 30.6788 12.6058 30.6749C14.007 30.6711 15.1948 31.1563 16.1692 32.1307C17.1435 33.105 17.6256 34.2928 17.6153 35.6941C17.605 37.0954 17.1127 38.2832 16.1384 39.2575C15.382 40.0139 14.141 40.6632 12.4154 41.2055C10.6897 41.7478 8.47565 42.1818 5.77315 42.5074C6.09878 39.8049 6.53595 37.5909 7.08465 35.8652C7.63338 34.1396 8.28595 32.8986 9.04235 32.1422ZM11.1808 34.2691C10.8218 34.6281 10.4756 35.246 10.1423 36.1229C9.80897 36.9999 9.58203 37.8947 9.4615 38.8075C10.3743 38.687 11.2692 38.462 12.1462 38.1325C13.0231 37.8031 13.641 37.4588 14 37.0998C14.4 36.6998 14.6103 36.2197 14.6308 35.6595C14.6513 35.0992 14.4615 34.6191 14.0615 34.2191C13.6615 33.8191 13.1814 33.6274 12.6212 33.6441C12.0609 33.6608 11.5808 33.8691 11.1808 34.2691Z" fill="white"/>
</svg>
