<svg width="18" height="18" viewBox="0 0 18 18" fill="none" xmlns="http://www.w3.org/2000/svg">
<path fill-rule="evenodd" clip-rule="evenodd" d="M5.25 2.0625C4.03877 2.0625 2.94349 2.36522 2.14849 3.10342C1.34597 3.84864 0.9375 4.95529 0.9375 6.375V11.625C0.9375 13.0447 1.34597 14.1514 2.14849 14.8966C2.94349 15.6348 4.03877 15.9375 5.25 15.9375H12.75C13.9613 15.9375 15.0566 15.6348 15.8515 14.8966C16.654 14.1514 17.0625 13.0447 17.0625 11.625V6.375C17.0625 4.95529 16.654 3.84864 15.8515 3.10342C15.0566 2.36522 13.9613 2.0625 12.75 2.0625H5.25ZM14.4214 6.27172C14.6672 6.08178 14.7125 5.72851 14.5225 5.48269C14.3326 5.23687 13.9793 5.19157 13.7335 5.38153L9.57315 8.5962C9.23557 8.85712 8.76435 8.85712 8.4267 8.5962L4.26645 5.38153C4.02062 5.19157 3.66737 5.23687 3.47741 5.48269C3.28746 5.72851 3.33275 6.08178 3.57858 6.27172L7.73887 9.48645C8.48167 10.0603 9.51825 10.0603 10.2611 9.48645L14.4214 6.27172Z" fill="white"/>
</svg>
