<svg width="20" height="20" viewBox="0 0 20 20" fill="none" xmlns="http://www.w3.org/2000/svg">
<path d="M9.51594 12.0557C10.1303 12.0557 10.6528 11.8393 11.0833 11.4065C11.5139 10.9737 11.7292 10.441 11.7292 9.80835C11.7292 9.17575 11.5155 8.63778 11.0882 8.19445C10.661 7.75112 10.1401 7.52946 9.52573 7.52946C8.91135 7.52946 8.39236 7.74944 7.96875 8.18941C7.54514 8.62936 7.33333 9.16565 7.33333 9.79827C7.33333 10.4309 7.54351 10.9653 7.96385 11.4014C8.38419 11.8376 8.90155 12.0557 9.51594 12.0557ZM9.52083 14.0936C8.36806 14.0936 7.38542 13.6753 6.57292 12.8387C5.76042 12.0021 5.35417 10.9903 5.35417 9.80331C5.35417 8.61633 5.76042 7.60454 6.57292 6.76793C7.38542 5.93132 8.36806 5.51302 9.52083 5.51302C10.6736 5.51302 11.6562 5.93132 12.4688 6.76793C13.2812 7.60454 13.6875 8.61633 13.6875 9.80331C13.6875 10.9903 13.2812 12.0021 12.4688 12.8387C11.6562 13.6753 10.6736 14.0936 9.52083 14.0936ZM0.979167 10.8115C0.704861 10.8115 0.47309 10.7137 0.283854 10.5182C0.0946181 10.3226 0 10.0831 0 9.79956C0 9.51604 0.0946181 9.27775 0.283854 9.08469C0.47309 8.89162 0.704861 8.79509 0.979167 8.79509H3.0625C3.33681 8.79509 3.56858 8.89287 3.75781 9.08844C3.94705 9.28402 4.04167 9.52356 4.04167 9.80706C4.04167 10.0906 3.94705 10.3289 3.75781 10.5219C3.56858 10.715 3.33681 10.8115 3.0625 10.8115H0.979167ZM15.9792 10.8115C15.7049 10.8115 15.4731 10.7137 15.2839 10.5182C15.0946 10.3226 15 10.0831 15 9.79956C15 9.51604 15.0946 9.27775 15.2839 9.08469C15.4731 8.89162 15.7049 8.79509 15.9792 8.79509H18.0625C18.3368 8.79509 18.5686 8.89287 18.7578 9.08844C18.9471 9.28402 19.0417 9.52356 19.0417 9.80706C19.0417 10.0906 18.9471 10.3289 18.7578 10.5219C18.5686 10.715 18.3368 10.8115 18.0625 10.8115H15.9792ZM9.51719 4.16158C9.24184 4.16158 9.01042 4.06415 8.82292 3.8693C8.63542 3.67445 8.54167 3.43581 8.54167 3.15336V1.00822C8.54167 0.725774 8.63663 0.487127 8.82656 0.292276C9.01651 0.0974253 9.24915 0 9.52448 0C9.79983 0 10.0312 0.0974253 10.2188 0.292276C10.4062 0.487127 10.5 0.725774 10.5 1.00822V3.15336C10.5 3.43581 10.405 3.67445 10.2151 3.8693C10.0252 4.06415 9.79252 4.16158 9.51719 4.16158ZM9.51719 19.6066C9.24184 19.6066 9.01042 19.5092 8.82292 19.3143C8.63542 19.1195 8.54167 18.8808 8.54167 18.5984V16.4533C8.54167 16.1708 8.63663 15.9322 8.82656 15.7373C9.01651 15.5425 9.24915 15.445 9.52448 15.445C9.79983 15.445 10.0312 15.5425 10.2188 15.7373C10.4062 15.9322 10.5 16.1708 10.5 16.4533V18.5984C10.5 18.8808 10.405 19.1195 10.2151 19.3143C10.0252 19.5092 9.79252 19.6066 9.51719 19.6066ZM4.27083 5.83479L3.08333 4.63351C2.88889 4.4333 2.79424 4.19302 2.7994 3.91268C2.80453 3.63232 2.89847 3.38563 3.08119 3.1726C3.27419 2.97386 3.50335 2.87449 3.76869 2.87449C4.03401 2.87449 4.27083 2.9746 4.47917 3.17481L5.66667 4.39755C5.84722 4.59776 5.9375 4.83373 5.9375 5.10544C5.9375 5.37716 5.84722 5.60955 5.66667 5.80262C5.47222 5.99568 5.23958 6.09936 4.96875 6.11366C4.69792 6.12796 4.46528 6.03501 4.27083 5.83479ZM14.5625 16.4318L13.375 15.2091C13.1944 15.0089 13.1042 14.7738 13.1042 14.5039C13.1042 14.2339 13.1979 13.9971 13.3854 13.7933C13.5729 13.5931 13.8021 13.493 14.0729 13.493C14.3438 13.493 14.5764 13.5931 14.7708 13.7933L15.9583 14.9731C16.1528 15.1733 16.2474 15.4136 16.2423 15.6939C16.2371 15.9743 16.1432 16.221 15.9605 16.434C15.7675 16.6328 15.5383 16.7321 15.273 16.7321C15.0077 16.7321 14.7708 16.632 14.5625 16.4318ZM13.3958 5.83479C13.2014 5.63458 13.1042 5.39504 13.1042 5.11617C13.1042 4.8373 13.2014 4.59776 13.3958 4.39755L14.5417 3.17481C14.7361 2.9746 14.9695 2.87715 15.2417 2.88245C15.514 2.88774 15.7536 2.98446 15.9605 3.1726C16.1535 3.37133 16.25 3.6073 16.25 3.8805C16.25 4.15369 16.1528 4.39755 15.9583 4.61206L14.7708 5.83479C14.5903 6.02071 14.3655 6.11366 14.0966 6.11366C13.8277 6.11366 13.5941 6.02071 13.3958 5.83479ZM3.08119 16.434C2.88817 16.2353 2.79167 15.9993 2.79167 15.7261C2.79167 15.4529 2.88889 15.2091 3.08333 14.9946L4.27083 13.7718C4.4625 13.5716 4.6875 13.4715 4.94583 13.4715C5.20417 13.4715 5.43478 13.5716 5.63769 13.7718C5.83756 13.972 5.9375 14.2116 5.9375 14.4904C5.9375 14.7693 5.84028 15.0089 5.64583 15.2091L4.5 16.4318C4.30556 16.632 4.0722 16.7295 3.79994 16.7242C3.52766 16.7189 3.28808 16.6222 3.08119 16.434Z" fill="white"/>
</svg>
