<svg width="18" height="17" viewBox="0 0 18 17" fill="none" xmlns="http://www.w3.org/2000/svg">
<g clip-path="url(#clip0_13_212)">
<path d="M3.9727 5.27805H0.464111V16.4571H3.9727V5.27805Z" fill="white"/>
<path d="M2.14453 0C0.850781 0 0 0.833008 0 1.93902C0 3.02403 0.822656 3.87803 2.09531 3.87803H2.12344C3.44531 3.87803 4.26797 3.01703 4.26094 1.93902C4.23281 0.833008 3.43828 0 2.14453 0Z" fill="white"/>
<path d="M13.5562 5.17305C11.5453 5.17305 10.2867 6.26506 10.0546 7.03507V5.27805H6.11011C6.15933 6.20906 6.11011 16.4571 6.11011 16.4571H10.0546V10.4161C10.0546 10.0731 10.0406 9.73709 10.139 9.49909C10.4062 8.82708 10.9898 8.12708 12.0375 8.12708C13.4085 8.12708 14.0273 9.16308 14.0273 10.6751V16.4571H18.007V10.2411C18.007 6.78307 16.0523 5.17305 13.5562 5.17305Z" fill="white"/>
</g>
<defs>
<clipPath id="clip0_13_212">
<rect width="18" height="16.4571" fill="white"/>
</clipPath>
</defs>
</svg>
