<svg width="38" height="48" viewBox="0 0 38 48" fill="none" xmlns="http://www.w3.org/2000/svg">
<path d="M36.6825 21.8667C36.8449 21.9939 36.977 22.1556 37.0692 22.3401C37.1614 22.5245 37.2115 22.7272 37.2159 22.9334C37.2104 23.1394 37.1599 23.3417 37.0677 23.526C36.9755 23.7103 36.8441 23.8721 36.6825 24.0001L30.3305 29.1094C30.0859 29.3068 29.7809 29.4141 29.4665 29.4134C29.1801 29.4144 28.9004 29.3263 28.6662 29.1613C28.432 28.9963 28.2549 28.7626 28.1594 28.4926C28.0639 28.2225 28.0547 27.9294 28.1332 27.6539C28.2116 27.3783 28.3738 27.134 28.5972 26.9547L33.6105 22.9334L28.6185 18.9121C28.4572 18.806 28.3199 18.6672 28.2156 18.5048C28.1112 18.3423 28.042 18.1598 28.0125 17.969C27.9831 17.7782 27.9939 17.5833 28.0444 17.3969C28.0949 17.2106 28.1838 17.0368 28.3056 16.887C28.4274 16.7371 28.5792 16.6145 28.7513 16.5269C28.9234 16.4393 29.1119 16.3888 29.3047 16.3786C29.4975 16.3684 29.6903 16.3988 29.8707 16.4677C30.0511 16.5366 30.215 16.6426 30.3519 16.7787L36.6825 21.8667Z" fill="white"/>
<path d="M21.3493 16.976C21.4637 17.1169 21.5491 17.279 21.6006 17.453C21.6521 17.627 21.6686 17.8095 21.6493 17.9899C21.6299 18.1704 21.5751 18.3452 21.4879 18.5044C21.4008 18.6635 21.283 18.8039 21.1413 18.9173L16.1493 22.9333L21.1413 26.9493C21.384 27.1908 21.5284 27.5138 21.5465 27.8556C21.5646 28.1975 21.4551 28.534 21.2392 28.7997C21.0233 29.0654 20.7164 29.2415 20.3781 29.2937C20.0397 29.346 19.694 29.2708 19.408 29.0826L13.0826 24C12.9206 23.8725 12.7887 23.7108 12.6965 23.5264C12.6043 23.342 12.554 23.1394 12.5493 22.9333C12.5529 22.727 12.6026 22.524 12.6949 22.3395C12.7872 22.1549 12.9197 21.9933 13.0826 21.8666L19.408 16.7733C19.6924 16.543 20.0566 16.435 20.4206 16.473C20.7846 16.511 21.1186 16.6919 21.3493 16.976Z" fill="white"/>
<path d="M18.5973 40C18.9637 40 19.315 40.1455 19.5741 40.4046C19.8331 40.6636 19.9787 41.015 19.9787 41.3813C19.9787 41.7477 19.8331 42.099 19.5741 42.3581C19.315 42.6171 18.9637 42.7627 18.5973 42.7627H9.312C8.94565 42.7627 8.5943 42.6171 8.33525 42.3581C8.0762 42.099 7.93066 41.7477 7.93066 41.3813C7.93066 41.015 8.0762 40.6636 8.33525 40.4046C8.5943 40.1455 8.94565 40 9.312 40H18.5973Z" fill="white"/>
<path d="M9.60001 3.14133C9.60001 3.51525 9.74818 3.87393 10.0121 4.13883C10.276 4.40373 10.6341 4.55326 11.008 4.55467H16.8747C17.0603 4.55467 17.2441 4.51811 17.4155 4.44708C17.587 4.37606 17.7428 4.27195 17.8741 4.14071C18.0053 4.00947 18.1094 3.85367 18.1804 3.68219C18.2515 3.51072 18.288 3.32694 18.288 3.14133V2.77867H9.60001V3.14133ZM26.4267 34.3733V41.84C26.4323 42.6465 26.2784 43.4461 25.9738 44.1929C25.6693 44.9396 25.22 45.6188 24.652 46.1913C24.0839 46.7638 23.4083 47.2184 22.6639 47.5288C21.9196 47.8392 21.1212 47.9993 20.3147 48H6.11734C5.31285 47.9993 4.51639 47.8401 3.77347 47.5314C3.03056 47.2227 2.35575 46.7707 1.78764 46.2011C1.21952 45.6315 0.769227 44.9555 0.462495 44.2118C0.155763 43.468 -0.00139256 42.6712 9.29641e-06 41.8667V6.16C-0.00140684 4.5286 0.64494 2.96339 1.79701 1.80831C2.94908 0.653243 4.51261 0.00282676 6.14401 0H20.288C21.0956 0.00139955 21.8949 0.161843 22.6404 0.47217C23.386 0.782496 24.0631 1.23663 24.6331 1.80864C25.2031 2.38065 25.6549 3.05933 25.9627 3.80594C26.2704 4.55255 26.4281 5.35246 26.4267 6.16V11.3173C26.4267 11.6837 26.2811 12.035 26.0221 12.2941C25.763 12.5531 25.4117 12.6987 25.0453 12.6987C24.679 12.6987 24.3276 12.5531 24.0686 12.2941C23.8095 12.035 23.664 11.6837 23.664 11.3173V6.16C23.6638 5.39924 23.4067 4.66084 22.9342 4.06453C22.4618 3.46821 21.8019 3.04893 21.0613 2.87467V3.14133C21.0599 4.24844 20.6195 5.30981 19.8367 6.09265C19.0538 6.8755 17.9925 7.31592 16.8853 7.31733H11.0187C9.91483 7.31169 8.85812 6.86924 8.07958 6.08669C7.30103 5.30415 6.86399 4.24519 6.86401 3.14133V2.77867H6.17068C5.27389 2.77867 4.41384 3.13491 3.77971 3.76904C3.14559 4.40316 2.78934 5.26321 2.78934 6.16V41.8933C2.78934 42.3339 2.87611 42.7701 3.0447 43.1771C3.21329 43.5841 3.46039 43.9539 3.7719 44.2654C4.08341 44.577 4.45323 44.8241 4.86023 44.9926C5.26724 45.1612 5.70347 45.248 6.14401 45.248H20.3147C20.757 45.2473 21.1949 45.1591 21.603 44.9886C22.0111 44.818 22.3815 44.5684 22.6928 44.2541C23.0041 43.9399 23.2502 43.5671 23.4168 43.1574C23.5835 42.7477 23.6675 42.309 23.664 41.8667V34.4C23.664 34.0336 23.8095 33.6823 24.0686 33.4233C24.3276 33.1642 24.679 33.0187 25.0453 33.0187C25.4117 33.0187 25.763 33.1642 26.0221 33.4233C26.2811 33.6823 26.4267 34.0336 26.4267 34.4V34.3733Z" fill="white"/>
</svg>
