<svg width="24" height="24" viewBox="0 0 24 24" fill="none" xmlns="http://www.w3.org/2000/svg">
<g clip-path="url(#clip0_264_24)">
<mask id="mask0_264_24" style="mask-type:luminance" maskUnits="userSpaceOnUse" x="0" y="0" width="24" height="24">
<path d="M24 0H0V24H24V0Z" fill="white"/>
</mask>
<g mask="url(#mask0_264_24)">
<path d="M16.2684 6.66413L19.7119 15.1342L17.3115 16.6483L15.5574 7.7492L15.5183 7.74314L10.6545 13.7155L9.30469 13.5041L15.1731 6.49249L16.2686 6.66413H16.2684Z" fill="black"/>
<path d="M7.79014 18.3727L4.34668 9.90262L7.0662 7.18756L8.50112 17.2876L8.5403 17.2937L13.4042 11.3213L14.7541 11.5327L8.88571 18.5443L7.79014 18.3727Z" fill="black"/>
<path d="M7.99988 7.87195L9.89738 10.8719L10.7179 9.71803L7.99988 7.87195Z" fill="black"/>
<path d="M13.7435 14.3847L15.923 16.2821L14.4613 13.5129L13.7435 14.3847Z" fill="black"/>
<path d="M12.2303 0.00229905C10.6721 -0.027863 9.14787 0.238895 7.69902 0.794299C6.19852 1.36954 4.84591 2.23076 3.67903 3.35369C2.51214 4.47664 1.59974 5.79536 0.967448 7.27271C0.35695 8.6991 0.032113 10.2124 0.00227685 11.7701C-0.0277235 13.3279 0.238876 14.8525 0.794287 16.3013C1.36954 17.8018 2.23077 19.1544 3.35372 20.3213C3.42138 20.3916 3.49212 20.4577 3.5612 20.5262L4.88395 18.9504C4.86676 18.9328 4.84878 18.9164 4.8317 18.8986C1.02775 14.9461 1.14852 8.63555 5.10117 4.83165C7.02789 2.97758 9.51462 2.05607 11.9982 2.05607C13.9641 2.05607 15.9277 2.63387 17.6104 3.78351L18.9342 2.20617C18.2463 1.71802 17.5097 1.30231 16.7272 0.967455C15.3008 0.356966 13.788 0.0321348 12.2303 0.00229905ZM20.4388 3.47357L19.1161 5.04989C19.1332 5.06749 19.1512 5.08388 19.1683 5.10163C22.9716 9.05438 22.8508 15.3648 18.8984 19.1686C15.4468 22.4903 10.1975 22.8187 6.38907 20.2167L5.06582 21.7935C5.75369 22.2817 6.48983 22.6974 7.27227 23.0323C8.69867 23.643 10.212 23.9681 11.7697 23.9979C11.8484 23.9995 11.9268 24 12.0054 24C13.4811 23.9999 14.9254 23.7327 16.301 23.2055C17.8015 22.6302 19.154 21.769 20.321 20.6461C21.4879 19.5231 22.4003 18.2049 23.0325 16.7276C23.6432 15.3012 23.9678 13.7879 23.9977 12.2301C24.0277 10.6722 23.7611 9.14777 23.2057 7.69894C22.6305 6.19846 21.7693 4.84588 20.6463 3.679C20.5785 3.60865 20.5079 3.54207 20.4388 3.47357Z" fill="black"/>
</g>
</g>
<defs>
<clipPath id="clip0_264_24">
<rect width="24" height="24" fill="white"/>
</clipPath>
</defs>
</svg>
