<svg width="18" height="18" viewBox="0 0 18 18" fill="none" xmlns="http://www.w3.org/2000/svg">
<g clip-path="url(#clip0_33_7)">
<path d="M12.8475 10.6762C12.6338 10.575 11.61 10.0687 11.4188 9.99C11.2275 9.91125 11.0925 9.88875 10.9463 10.1025C10.8 10.3162 10.4063 10.7775 10.2825 10.9237C10.1588 11.07 10.0463 11.0812 9.83251 10.9237C9.21857 10.6774 8.65156 10.3273 8.15626 9.88875C7.70789 9.4666 7.32831 8.97694 7.03126 8.4375C6.90751 8.235 7.03126 8.1225 7.12126 8.01C7.21126 7.8975 7.32376 7.77375 7.43626 7.65C7.51853 7.54297 7.58659 7.42575 7.63876 7.30125C7.66667 7.24335 7.68116 7.1799 7.68116 7.11562C7.68116 7.05134 7.66667 6.9879 7.63876 6.93C7.63876 6.82875 7.16626 5.805 6.98626 5.38875C6.80626 4.9725 6.64876 5.02875 6.52501 5.02875H6.07501C5.86064 5.0371 5.65835 5.13016 5.51251 5.2875C5.27711 5.51213 5.09065 5.78296 4.96482 6.08302C4.83899 6.38308 4.7765 6.7059 4.78126 7.03125C4.8388 7.82997 5.13249 8.59357 5.62501 9.225C6.5288 10.5676 7.76529 11.6529 9.21376 12.375C9.70876 12.5887 10.0913 12.7125 10.395 12.8137C10.8215 12.9427 11.2724 12.9696 11.7113 12.8925C12.0027 12.8334 12.279 12.715 12.5228 12.5447C12.7666 12.3744 12.9729 12.1558 13.1288 11.9025C13.2585 11.5897 13.3012 11.2476 13.2525 10.9125C13.1963 10.8337 13.0613 10.7775 12.8475 10.6762Z" fill="white"/>
<path d="M14.9512 3.015C14.1732 2.22962 13.2458 1.60799 12.2236 1.18677C11.2015 0.765563 10.1054 0.553297 8.99995 0.562497C7.53553 0.57016 6.09875 0.961908 4.83311 1.69861C3.56747 2.43532 2.51726 3.4912 1.78739 4.76079C1.05752 6.03038 0.673517 7.46925 0.673747 8.93369C0.673976 10.3981 1.05842 11.8369 1.7887 13.1062L0.663696 17.4375L5.0962 16.3125C6.32158 16.9793 7.69489 17.3275 9.08995 17.325H8.99995C10.6626 17.3358 12.2908 16.8512 13.677 15.933C15.0631 15.0147 16.1443 13.7044 16.7828 12.1692C17.4213 10.634 17.588 8.94341 17.2618 7.31303C16.9356 5.68265 16.1312 4.18637 14.9512 3.015ZM8.99995 15.885C7.75182 15.886 6.5269 15.5477 5.4562 14.9062L5.2087 14.76L2.5762 15.4462L3.2737 12.8812L3.1162 12.6225C2.21772 11.1756 1.88163 9.44915 2.1717 7.77084C2.46177 6.09252 3.35781 4.57907 4.68981 3.51763C6.02181 2.45619 7.6971 1.92062 9.39781 2.01253C11.0985 2.10444 12.7063 2.81744 13.9162 4.01625C14.5648 4.65963 15.0789 5.42566 15.4285 6.2697C15.7781 7.11375 15.9562 8.01893 15.9524 8.9325C15.9495 10.7755 15.216 12.5422 13.9128 13.8454C12.6096 15.1486 10.8429 15.882 8.99995 15.885Z" fill="white"/>
</g>
<defs>
<clipPath id="clip0_33_7">
<rect width="18" height="18" fill="white"/>
</clipPath>
</defs>
</svg>
